<svg xmlns="http://www.w3.org/2000/svg" viewBox="0 0 200 200">
  <!-- Longbox loading splash: the line-mark on an ink tile with a gentle pulse. -->
  <rect width="200" height="200" rx="44" fill="#211d18"/>
  <g
    fill="none"
    stroke="#f3efe8"
    stroke-width="4.5"
    stroke-linejoin="round"
    stroke-linecap="round"
    transform="translate(100 100) scale(0.83) translate(-100 -104)"
  >
    <animate attributeName="opacity" values="1;0.4;1" dur="1.8s" repeatCount="indefinite" />
    <path d="M60 92 L25 70 L25 126 L60 148 Z" />
    <path d="M60 92 L175 92 L175 148 L60 148 Z" />
    <path d="M56 94 L21 72 L21 60 L56 82 Z" />
    <path d="M56 94 L179 94 L179 82 L56 82 Z" />
    <path d="M56 82 L179 82 L144 60 L21 60 Z" />
    <path d="M35 96 L50 105 M35 96 Q32 96 32 99 L32 101 Q32 104 35 106 L48 114 Q51 114 51 111 L51 109 Q51 106 48 104 Z" />
  </g>
</svg>
