<svg xmlns="http://www.w3.org/2000/svg" viewBox="0 0 512 512">
  <!-- Longbox loading splash: the badge glyph with a gentle pulse. -->
  <rect x="0" y="0" width="512" height="512" rx="116" fill="#161719"/>
  <g>
    <animate attributeName="opacity" values="1;0.45;1" dur="1.8s" repeatCount="indefinite"/>
    <rect x="112" y="188" width="54" height="140" rx="7" fill="#F2EAD9"/>
    <rect x="178" y="156" width="54" height="172" rx="7" fill="#E6DCC3"/>
    <rect x="244" y="176" width="54" height="152" rx="7" fill="#F2EAD9"/>
    <g transform="rotate(7 341 250)">
      <rect x="314" y="118" width="54" height="200" rx="7" fill="#D9704C"/>
    </g>
    <rect x="80" y="300" width="352" height="136" rx="20" fill="#E5A83B"/>
    <path d="M80 320 q0 -20 20 -20 h312 q20 0 20 20 v12 h-352 z" fill="#B9822A"/>
    <rect x="112" y="356" width="84" height="48" rx="10" fill="#F2EAD9"/>
    <rect x="126" y="372" width="42" height="7" rx="3.5" fill="#B9822A"/>
    <rect x="126" y="386" width="26" height="7" rx="3.5" fill="#D9C9A8"/>
  </g>
</svg>
