<?xml version="1.0" encoding="UTF-8"?>
<svg id="sf-symbol" xmlns="http://www.w3.org/2000/svg" viewBox="0 -960 960 960">
  <g id="Regular-M">
    <g transform="translate(-144, 144) scale(1.3)">
      <path d="m440-803-83 83H240v117l-83 83 83 83v117h117l83 83 100-100 168 85-86-167 101-101-83-83v-117H523l-83-83Zm0-113 116 116h164v164l116 116-116 116 115 226q7 13 4 25.5T828-132q-8 8-20.5 11t-25.5-4L556-240 440-124 324-240H160v-164L44-520l116-116v-164h164l116-116Zm0 396Z" fill="currentColor"/>
    </g>
  </g>
  <g id="guides">
    <path id="Baseline-S" fill="none" d="M0,0h1"/>
    <path id="Baseline-M" fill="none" d="M0,0h1"/>
    <path id="Baseline-L" fill="none" d="M0,0h1"/>
    <path id="Capline-S" fill="none" d="M0,-800h1"/>
    <path id="Capline-M" fill="none" d="M0,-800h1"/>
    <path id="Capline-L" fill="none" d="M0,-800h1"/>
  </g>
</svg>